<svg width="24" height="24" viewBox="0 0 24 24" fill="none" xmlns="http://www.w3.org/2000/svg">
<path d="M14.2501 1.17188C13.8049 1.17188 13.4531 1.52362 13.4531 1.96875C13.4531 2.41388 13.8049 2.76572 14.2501 2.76572C14.6952 2.76572 15.047 2.41388 15.047 1.96875C15.047 1.52362 14.6952 1.17188 14.2501 1.17188ZM13.8282 3.55355V9.42188H9.35739L8.73329 13.1665L12.0001 13.8198L15.2668 13.1665L14.6719 9.59709V3.5535C14.5344 3.59057 14.3925 3.60936 14.2501 3.60938C14.1076 3.60938 13.9657 3.5906 13.8282 3.55355ZM10.6969 6.42188L8.88957 8.57812H12.9844V6.42188H10.6969ZM2.57818 8.40947V14.9441L1.89282 15.5632L2.95867 16.6644L10.6916 16.3876L10.5503 14.9839L9.83785 14.2477L8.16728 13.9136L7.76682 13.8335L7.96679 12.6337L5.99504 11.857L3.42193 14.1817V8.40952L2.57818 8.40947ZM8.58146 8.94562L7.48557 10.2531L8.32201 10.5026L8.58146 8.94562ZM15.4277 9L15.6781 10.5026L16.5145 10.2531C16.2588 9.95878 16.1018 9.75 15.4277 9ZM18.0051 11.857L16.0333 12.6337L16.2333 13.8335L14.1623 14.2477L13.4498 14.9839L13.3085 16.3876L21.0414 16.6644L22.1073 15.5632L18.0051 11.857ZM5.54832 13.2017L7.79832 15.4517L7.20179 16.0483L4.95179 13.7983L5.54832 13.2017ZM18.4518 13.2017L19.0483 13.7983L16.7983 16.0483L16.2018 15.4517L18.4518 13.2017ZM7.18056 17.3323L6.22792 17.3509L5.06007 19.6867L4.50006 19.5L3.00006 21L5.25006 21.75L6.75006 20.25L5.86857 19.9562L7.18056 17.3323ZM16.8324 17.358L18.1315 19.9562L17.2501 20.25L18.7501 21.75L21.0001 21L19.5001 19.5L18.94 19.6867L17.7929 17.3924L16.8324 17.358Z" fill="white"/>
</svg>
