<svg width="20" height="20" viewBox="0 0 20 20" fill="none" xmlns="http://www.w3.org/2000/svg">
<path d="M9.69 13.4883L7.98417 11.705L13.6433 6.74414L14.6517 7.82914L9.69 13.4883ZM17.0542 18.5275C18.8375 16.7441 20 14.2633 20 11.4725C20 5.96914 15.5042 1.47247 10 1.47247C4.49583 1.47247 0 5.96914 0 11.4725C0 14.2641 1.085 16.7441 2.94583 18.5275L4.34083 17.1316C2.86833 15.6591 2.01583 13.7208 2.01583 11.4733C2.01441 10.4243 2.21994 9.38538 2.62066 8.41596C3.02137 7.44654 3.6094 6.5657 4.35106 5.82388C5.09272 5.08206 5.97344 4.49385 6.94278 4.09293C7.91212 3.69201 8.95102 3.48627 10 3.48747C11.0488 3.48627 12.0876 3.69196 13.0568 4.09278C14.0261 4.49359 14.9067 5.08165 15.6483 5.82329C16.39 6.56493 16.978 7.44558 17.3789 8.41481C17.7797 9.38403 17.9854 10.4228 17.9842 11.4716C17.9842 13.6425 17.0542 15.6583 15.6592 17.1308L17.0542 18.5275Z" fill="white"/>
</svg>
